<svg width="280" height="140" viewBox="0 0 280 140" fill="none" xmlns="http://www.w3.org/2000/svg">
<path d="M199.438 99.9375V111.176C199.438 113.043 198.852 114.52 197.68 115.605C196.516 116.691 194.922 117.234 192.898 117.234C190.906 117.234 189.324 116.707 188.152 115.652C186.98 114.598 186.383 113.148 186.359 111.305V99.9375H189.875V111.199C189.875 112.316 190.141 113.133 190.672 113.648C191.211 114.156 191.953 114.41 192.898 114.41C194.875 114.41 195.879 113.371 195.91 111.293V99.9375H199.438ZM205.215 104.32L205.32 105.785C206.227 104.652 207.441 104.086 208.965 104.086C210.309 104.086 211.309 104.48 211.965 105.27C212.621 106.059 212.957 107.238 212.973 108.809V117H209.586V108.891C209.586 108.172 209.43 107.652 209.117 107.332C208.805 107.004 208.285 106.84 207.559 106.84C206.605 106.84 205.891 107.246 205.414 108.059V117H202.027V104.32H205.215ZM219.125 117H215.727V104.32H219.125V117ZM215.527 101.039C215.527 100.531 215.695 100.113 216.031 99.7852C216.375 99.457 216.84 99.293 217.426 99.293C218.004 99.293 218.465 99.457 218.809 99.7852C219.152 100.113 219.324 100.531 219.324 101.039C219.324 101.555 219.148 101.977 218.797 102.305C218.453 102.633 217.996 102.797 217.426 102.797C216.855 102.797 216.395 102.633 216.043 102.305C215.699 101.977 215.527 101.555 215.527 101.039ZM226.672 112.863L229.027 104.32H232.566L228.289 117H225.055L220.777 104.32H224.316L226.672 112.863ZM239.738 117.234C237.879 117.234 236.363 116.664 235.191 115.523C234.027 114.383 233.445 112.863 233.445 110.965V110.637C233.445 109.363 233.691 108.227 234.184 107.227C234.676 106.219 235.371 105.445 236.27 104.906C237.176 104.359 238.207 104.086 239.363 104.086C241.098 104.086 242.461 104.633 243.453 105.727C244.453 106.82 244.953 108.371 244.953 110.379V111.762H236.879C236.988 112.59 237.316 113.254 237.863 113.754C238.418 114.254 239.117 114.504 239.961 114.504C241.266 114.504 242.285 114.031 243.02 113.086L244.684 114.949C244.176 115.668 243.488 116.23 242.621 116.637C241.754 117.035 240.793 117.234 239.738 117.234ZM239.352 106.828C238.68 106.828 238.133 107.055 237.711 107.508C237.297 107.961 237.031 108.609 236.914 109.453H241.625V109.184C241.609 108.434 241.406 107.855 241.016 107.449C240.625 107.035 240.07 106.828 239.352 106.828ZM254.012 107.496C253.551 107.434 253.145 107.402 252.793 107.402C251.512 107.402 250.672 107.836 250.273 108.703V117H246.887V104.32H250.086L250.18 105.832C250.859 104.668 251.801 104.086 253.004 104.086C253.379 104.086 253.73 104.137 254.059 104.238L254.012 107.496ZM262.52 113.496C262.52 113.082 262.312 112.758 261.898 112.523C261.492 112.281 260.836 112.066 259.93 111.879C256.914 111.246 255.406 109.965 255.406 108.035C255.406 106.91 255.871 105.973 256.801 105.223C257.738 104.465 258.961 104.086 260.469 104.086C262.078 104.086 263.363 104.465 264.324 105.223C265.293 105.98 265.777 106.965 265.777 108.176H262.391C262.391 107.691 262.234 107.293 261.922 106.98C261.609 106.66 261.121 106.5 260.457 106.5C259.887 106.5 259.445 106.629 259.133 106.887C258.82 107.145 258.664 107.473 258.664 107.871C258.664 108.246 258.84 108.551 259.191 108.785C259.551 109.012 260.152 109.211 260.996 109.383C261.84 109.547 262.551 109.734 263.129 109.945C264.918 110.602 265.812 111.738 265.812 113.355C265.812 114.512 265.316 115.449 264.324 116.168C263.332 116.879 262.051 117.234 260.48 117.234C259.418 117.234 258.473 117.047 257.645 116.672C256.824 116.289 256.18 115.77 255.711 115.113C255.242 114.449 255.008 113.734 255.008 112.969H258.219C258.25 113.57 258.473 114.031 258.887 114.352C259.301 114.672 259.855 114.832 260.551 114.832C261.199 114.832 261.688 114.711 262.016 114.469C262.352 114.219 262.52 113.895 262.52 113.496ZM273.84 117.234C271.98 117.234 270.465 116.664 269.293 115.523C268.129 114.383 267.547 112.863 267.547 110.965V110.637C267.547 109.363 267.793 108.227 268.285 107.227C268.777 106.219 269.473 105.445 270.371 104.906C271.277 104.359 272.309 104.086 273.465 104.086C275.199 104.086 276.562 104.633 277.555 105.727C278.555 106.82 279.055 108.371 279.055 110.379V111.762H270.98C271.09 112.59 271.418 113.254 271.965 113.754C272.52 114.254 273.219 114.504 274.062 114.504C275.367 114.504 276.387 114.031 277.121 113.086L278.785 114.949C278.277 115.668 277.59 116.23 276.723 116.637C275.855 117.035 274.895 117.234 273.84 117.234ZM273.453 106.828C272.781 106.828 272.234 107.055 271.812 107.508C271.398 107.961 271.133 108.609 271.016 109.453H275.727V109.184C275.711 108.434 275.508 107.855 275.117 107.449C274.727 107.035 274.172 106.828 273.453 106.828Z" fill="white"/>
<path d="M41.8594 53.9219H3.46875C2.125 53.9219 1.45312 53.4375 1.45312 52.4688C1.45312 52.0312 1.76562 51.2344 2.39062 50.0781C3.01562 48.9219 3.75 47.9688 4.59375 47.2188C5.3125 46.5625 6.46875 46.2344 8.0625 46.2344H46.4531C47.7969 46.2344 48.4688 46.7188 48.4688 47.6875C48.4688 48.125 48.1562 48.9219 47.5312 50.0781C46.9062 51.2344 46.1719 52.1875 45.3281 52.9375C44.6094 53.5938 43.4531 53.9219 41.8594 53.9219ZM19.4062 110.453L19.3594 59.5469C19.3594 58.4219 19.7344 57.6875 20.4844 57.3438C21.2656 56.9688 22.4531 56.7812 24.0469 56.7812C25.7969 56.7812 27.0156 56.9688 27.7031 57.3438C28.4219 57.6875 28.7812 58.4219 28.7812 59.5469V105.484C28.7812 106.828 28.4688 107.875 27.8438 108.625C27.0312 109.594 25.9062 110.484 24.4688 111.297C23.0625 112.078 21.9219 112.469 21.0469 112.469C19.9531 112.469 19.4062 111.797 19.4062 110.453ZM74.3438 62.5469C76.9688 62.5469 79.3281 62.8906 81.4219 63.5781C83.5156 64.2656 85.2812 65.375 86.7188 66.9062C88.1562 68.4062 89.25 70.3594 90 72.7656C90.7812 75.1406 91.1719 78.0156 91.1719 81.3906V106.797C91.1719 107.578 90.9219 108.312 90.4219 109C89.9531 109.688 89.3594 110.297 88.6406 110.828C87.9531 111.328 87.2031 111.719 86.3906 112C85.6094 112.312 84.9219 112.469 84.3281 112.469C83.2344 112.469 82.6875 111.797 82.6875 110.453V83.125C82.6875 73.9062 79.0312 69.2969 71.7188 69.2969C67.4688 69.2969 63.6094 70.4688 60.1406 72.8125C58.7656 73.7188 57.875 74.1719 57.4688 74.1719C57 74.1719 56.7656 73.9219 56.7656 73.4219C56.7656 72.5469 57.25 71.5156 58.2188 70.3281C62.4688 65.1406 67.8438 62.5469 74.3438 62.5469ZM79.125 109.375C77.8125 110.562 76.1875 111.531 74.25 112.281C72.3125 113.062 70.4531 113.453 68.6719 113.453C64.5156 113.453 61.3281 112.359 59.1094 110.172C56.9219 107.953 55.8281 105.234 55.8281 102.016C55.8281 99.7031 56.625 97.9375 58.2188 96.7188C59.6562 95.5938 60.9062 95.0312 61.9688 95.0312C62.3125 95.0312 62.6094 95.1562 62.8594 95.4062C63.1094 95.6562 63.2344 96.0312 63.2344 96.5312C63.2344 100.094 63.8438 102.688 65.0625 104.312C66.2812 105.906 68.4531 106.703 71.5781 106.703C72.5156 106.703 73.6562 106.547 75 106.234C76.3438 105.891 77.4844 105.438 78.4219 104.875C78.9844 104.531 79.4062 104.359 79.6875 104.359C80.125 104.359 80.3438 104.938 80.3438 106.094C80.3438 107.531 79.9375 108.625 79.125 109.375ZM78.75 84.0625C79.3438 84.375 79.75 84.7969 79.9688 85.3281C80.1875 85.8281 80.2969 86.7812 80.2969 88.1875C80.2969 89.4375 80.1875 90.3438 79.9688 90.9062C79.7812 91.4375 79.4219 91.7031 78.8906 91.7031C78.5469 91.7031 78.0625 91.5625 77.4375 91.2812C74.5 90 71.8438 89.3594 69.4688 89.3594C65.625 89.3594 61.9688 90.75 58.5 93.5312C57.4062 94.4062 56.6719 94.8438 56.2969 94.8438C55.7969 94.8438 55.5469 94.5625 55.5469 94C55.5469 93.125 55.8594 92.1719 56.4844 91.1406C58.1406 88.3594 60.3125 86.25 63 84.8125C65.7188 83.3438 68.7344 82.6094 72.0469 82.6094C74.5781 82.6094 76.8125 83.0938 78.75 84.0625ZM102.797 110.453V45.9062C102.797 44.2188 103.562 42.8125 105.094 41.6875C106.656 40.5625 108.156 40 109.594 40C110.688 40 111.234 40.6719 111.234 42.0156V106.562C111.234 108.281 110.469 109.703 108.938 110.828C107.406 111.922 105.906 112.469 104.438 112.469C103.344 112.469 102.797 111.797 102.797 110.453ZM137.203 109.047C135.859 111.328 134.391 112.469 132.797 112.469C132.047 112.469 131.281 111.891 130.5 110.734L114.375 87.1562C113.844 86.3438 113.578 85.6875 113.578 85.1875C113.578 84.4062 114 83.5469 114.844 82.6094L128.672 67.1875C129.984 65.7188 131.172 64.8281 132.234 64.5156C133.297 64.2031 135.078 64.0312 137.578 64C138.547 64 139.031 64.3906 139.031 65.1719C139.031 65.7344 138.578 66.4688 137.672 67.375L123.75 81.7656C123 82.5781 122.625 83.2656 122.625 83.8281C122.625 84.2969 122.891 84.875 123.422 85.5625L137.109 104.312C137.672 105.156 137.953 105.922 137.953 106.609C137.953 107.391 137.703 108.203 137.203 109.047ZM154.359 82.1406C154.359 83.0156 154.625 83.5781 155.156 83.8281C155.719 84.0469 156.531 84.1562 157.594 84.1562C160.312 84.1562 162.641 83.9219 164.578 83.4531C166.516 82.9844 168 82.3281 169.031 81.4844C170.062 80.6406 170.797 79.75 171.234 78.8125C171.703 77.875 171.938 76.8438 171.938 75.7188C171.938 73.7812 171.266 72.2344 169.922 71.0781C168.578 69.8906 166.422 69.2969 163.453 69.2969C158.797 69.2969 154.422 70.7656 150.328 73.7031C149.109 74.6094 148.344 75.0625 148.031 75.0625C147.5 75.0625 147.234 74.7656 147.234 74.1719C147.234 73.3906 147.688 72.4375 148.594 71.3125C150.281 69.1562 152.203 67.3906 154.359 66.0156C156.516 64.6406 158.484 63.7188 160.266 63.25C162.047 62.7812 163.812 62.5469 165.562 62.5469C167.812 62.5469 169.844 62.7812 171.656 63.25C173.469 63.7188 175.078 64.4531 176.484 65.4531C177.891 66.4219 178.984 67.7656 179.766 69.4844C180.547 71.1719 180.938 73.1562 180.938 75.4375C180.938 80.3125 178.609 84.0781 173.953 86.7344C169.328 89.3594 163 90.6719 154.969 90.6719C152.719 90.6719 150.172 90.5469 147.328 90.2969C145.922 90.2031 145.219 89.5156 145.219 88.2344C145.219 84.7656 145.719 82.1719 146.719 80.4531C147.719 78.7031 149.016 77.3594 150.609 76.4219C152.172 75.5156 153.359 75.0625 154.172 75.0625C154.922 75.0625 155.297 75.5312 155.297 76.4688C155.297 76.8438 155.141 77.7656 154.828 79.2344C154.516 80.6719 154.359 81.6406 154.359 82.1406ZM145.594 95.2188C145.594 93.5938 146.344 92.7812 147.844 92.7812H151.875C152.688 92.7812 153.25 92.9375 153.562 93.25C153.906 93.5625 154.172 94.25 154.359 95.3125C155.578 102.906 159.734 106.703 166.828 106.703C168.609 106.703 170.281 106.484 171.844 106.047C173.406 105.609 174.609 105.125 175.453 104.594C176.328 104.062 177.125 103.578 177.844 103.141C178.594 102.703 179.141 102.484 179.484 102.484C180.203 102.484 180.562 102.875 180.562 103.656C180.562 104.312 180.203 105.156 179.484 106.188C178.766 107.219 177.734 108.297 176.391 109.422C175.078 110.516 173.25 111.453 170.906 112.234C168.594 113.047 166.078 113.453 163.359 113.453C157.734 113.453 153.359 111.766 150.234 108.391C147.141 104.984 145.594 100.594 145.594 95.2188Z" fill="white"/>
</svg>
